<svg id="Layer_1" data-name="Layer 1" xmlns="http://www.w3.org/2000/svg" viewBox="0 0 120 16.2"><defs><style>.cls-1{fill:#004c93;}</style></defs><title>parto-logo-final</title><path class="cls-1" d="M5.5,0A27.7,27.7,0,0,0,.1.7H0V16H3.3V10.3H5.5C9.8,10.3,12,8.5,12,5S9.8,0,5.5,0ZM3.3,2.8l2.2-.2C8.3,2.6,8.7,4,8.7,5.2S8.3,7.8,5.5,7.8L3.3,7.6Z" transform="translate(0 0.2)"/><path class="cls-1" d="M38.1,9.2A4.1,4.1,0,0,0,41,4.9C41,1.7,38.8,0,34.6,0a31.1,31.1,0,0,0-5.4.7h-.1V15.9h3.3V9.8h2.5L38.2,16l3.5-.5ZM32.4,2.8l2.1-.2a3.3,3.3,0,0,1,2.6.8,2,2,0,0,1,.5,1.5c0,1.5-1,2.3-3.1,2.3H32.4Z" transform="translate(0 0.2)"/><path class="cls-1" d="M102.7,9.1a4.1,4.1,0,0,0,2.9-4.3c0-3.2-2.2-4.9-6.4-4.9a31.1,31.1,0,0,0-5.4.7h-.1V15.9H97V9.8h2.5l3.3,6.2,3.5-.5ZM97,7.1V2.8l2.1-.2a3.3,3.3,0,0,1,2.6.8,2,2,0,0,1,.5,1.5c0,1.5-1,2.3-3.1,2.3Z" transform="translate(0 0.2)"/><path class="cls-1" d="M70.9,4.1A5.6,5.6,0,0,0,67,.4a11.4,11.4,0,0,0-5.9,0,5.6,5.6,0,0,0-3.9,3.8A12.5,12.5,0,0,0,56.7,8a12.8,12.8,0,0,0,.5,3.9A5.7,5.7,0,0,0,61,15.6a12,12,0,0,0,5.9,0,5.7,5.7,0,0,0,3.9-3.8,12.8,12.8,0,0,0,.5-3.9A12.5,12.5,0,0,0,70.9,4.1ZM64,13.4a3.6,3.6,0,0,1-3.1-1.3,6.7,6.7,0,0,1-1-4.1,6.7,6.7,0,0,1,1-4.1,4.4,4.4,0,0,1,6.1,0A6.7,6.7,0,0,1,68,8a6.7,6.7,0,0,1-1,4.1A3.6,3.6,0,0,1,64,13.4Z" transform="translate(0 0.2)"/><path class="cls-1" d="M90.5,12.6h-.2a13.1,13.1,0,0,1-3.9.8c-3,0-4.3-1.6-4.3-5.4s1.3-5.4,4.3-5.4a13.1,13.1,0,0,1,3.9.8h.2L91,.5h-.2A29.2,29.2,0,0,0,86.1,0a7.7,7.7,0,0,0-5.2,1.6C79.5,2.8,78.7,5,78.7,8s.7,5.2,2.2,6.4A7.8,7.8,0,0,0,86.1,16a25.1,25.1,0,0,0,4.7-.6H91Z" transform="translate(0 0.2)"/><path class="cls-1" d="M108.5,15.4a23.3,23.3,0,0,0,5.1.5c2.8,0,6.4-.9,6.4-4.8s-1.8-3.6-4.8-4.6-3-1.1-3-2.3.4-1.6,2.5-1.6a10.9,10.9,0,0,1,3.9.9l.9-2.6a11.3,11.3,0,0,0-5.1-1.1c-2.8,0-5.6,1.5-5.6,4.5s2.8,4.1,5.1,4.8,2.8,1,2.8,2.1-.5,1.8-3.1,1.8a23.9,23.9,0,0,1-4.3-.5Z" transform="translate(0 0.2)"/><polygon class="cls-1" points="42.2 0.2 42.2 2.9 47.5 2.9 47.5 16.2 50.8 16.2 50.8 2.9 56.1 2.9 56.1 0.2 42.2 0.2"/><path class="cls-1" d="M23.2,16l-1.5-4.5H16L14.5,16H11L16.7,0H21l5.7,16ZM20.8,8.8,18.9,3.1,17,8.8Z" transform="translate(0 0.2)"/></svg>